<svg width="192" height="192" viewBox="0 0 192 192" fill="none" xmlns="http://www.w3.org/2000/svg">
<path d="M26.2311 38.7753C39.3582 32.5429 53.2338 30.8033 67.6936 32.5828C83.7094 34.5539 95.7599 48.1841 95.7599 64.3197V159.6C73.5356 144.79 51.3193 143.72 29.095 150.04C26.5175 150.775 23.9399 148.924 23.9399 146.242V42.4536C23.9399 40.9055 24.8346 39.4377 26.2311 38.7753Z" fill="#4A4FD9"/>
<path opacity="0.4" d="M165.289 38.7753C152.162 32.5429 138.286 30.8033 123.826 32.5828C107.81 34.5539 95.7598 48.1841 95.7598 64.3197V159.6C117.984 144.79 140.2 143.72 162.425 150.04C165.002 150.775 167.58 148.924 167.58 146.242V42.4536C167.58 40.9055 166.685 39.4377 165.289 38.7753Z" fill="#4A4FD9"/>
<path d="M147.63 33.1173V79.8001L135.66 72.9374L123.69 79.8001V32.5582C123.77 32.5582 123.77 32.5582 123.85 32.5582C131.989 31.6006 139.889 31.6809 147.63 33.1173Z" fill="#4A4FD9"/>
</svg>
