<svg width="192" height="192" viewBox="0 0 192 192" fill="none" xmlns="http://www.w3.org/2000/svg">
<path opacity="0.4" d="M83.5107 44.4486C87.0139 38.8546 91.8578 34.2103 97.5635 30.7948C111.824 22.2562 126.97 22.4157 139.139 27.3314L121.815 44.7357C117.218 49.3561 117.226 56.9054 121.831 61.5099L130.01 69.6893C134.623 74.2938 142.172 74.3096 146.784 69.7051L164.188 52.3806C169.104 64.5422 169.264 79.776 160.645 94.0362C157.102 99.9973 152.027 105.073 145.978 108.696C135.756 114.856 124.959 116.468 115.223 115.056C111.576 114.529 107.914 115.822 105.312 118.431L62.8345 160.901C53.9368 169.798 39.509 169.798 30.6113 160.901C21.7136 152.003 21.7136 137.575 30.6113 128.677L73.0888 86.1999C75.6903 83.5984 76.999 79.9356 76.4644 76.2887C75.0439 66.5132 76.6639 55.7563 82.8962 45.4541C83.1037 45.119 83.3032 44.7838 83.5107 44.4486Z" fill="#4A4FD9"/>
<path d="M48.0397 151.62C43.6348 151.62 40.0198 148.045 40.0198 143.64C40.0198 139.235 43.5469 135.66 47.9598 135.66H48.0397C52.4447 135.66 56.0197 139.235 56.0197 143.64C56.0197 148.045 52.4447 151.62 48.0397 151.62Z" fill="#4A4FD9"/>
</svg>
