<svg width="895" height="850" viewBox="0 0 895 850" fill="none" xmlns="http://www.w3.org/2000/svg">
<g id="&#215;&#147;&#215;&#163; &#215;&#145;&#215;&#153;&#215;&#170;" clip-path="url(#clip0_269_1092)">
<g id="Group 3">
<g id="Group 2">
<path id="Vector 2" d="M813.597 150.019L813.597 564.461" stroke="#FFC712" stroke-opacity="0.4" stroke-width="1.07928"/>
<path id="Vector 3" d="M729.413 69.0736L729.413 617.345" stroke="#FFC712" stroke-opacity="0.4" stroke-width="1.07928"/>
<path id="Vector 4" d="M645.23 0V761.968" stroke="#FFC712" stroke-opacity="0.4" stroke-width="1.07928"/>
<path id="Vector 5" d="M561.046 0V761.968" stroke="#FFC712" stroke-opacity="0.4" stroke-width="1.07928"/>
<path id="Vector 6" d="M476.863 0V761.968" stroke="#FFC712" stroke-opacity="0.4" stroke-width="1.07928"/>
<path id="Vector 7" d="M392.68 69.0736L392.68 849.39" stroke="#FFC712" stroke-opacity="0.4" stroke-width="1.07928"/>
<path id="Vector 8" d="M308.496 69.0736L308.496 849.39" stroke="#FFC712" stroke-opacity="0.4" stroke-width="1.07928"/>
<path id="Vector 9" d="M221.075 370.191L221.075 849.39" stroke="#FFC712" stroke-opacity="0.4" stroke-width="1.07928"/>
<path id="Vector 19" d="M133.653 370.191L133.653 849.39" stroke="#FFC712" stroke-opacity="0.4" stroke-width="1.07928"/>
<path id="Vector 20" d="M46.2322 237.441L46.2322 761.968" stroke="#FFC712" stroke-opacity="0.4" stroke-width="1.07928"/>
<path id="Vector 11" d="M645.23 761.968H46.2322" stroke="#FFC712" stroke-opacity="0.4" stroke-width="1.07928"/>
<path id="Vector 12" d="M616.089 674.547H-22.8414" stroke="#FFC712" stroke-opacity="0.4" stroke-width="1.07928"/>
<path id="Vector 13" d="M752.078 587.126H-25" stroke="#FFC712" stroke-opacity="0.4" stroke-width="1.07928"/>
<path id="Vector 14" d="M894.542 499.704L-25 499.704" stroke="#FFC712" stroke-opacity="0.4" stroke-width="1.07928"/>
<path id="Vector 15" d="M894.542 412.283L46.2322 412.283" stroke="#FFC712" stroke-opacity="0.4" stroke-width="1.07928"/>
<path id="Vector 16" d="M894.542 324.862L46.2322 324.862" stroke="#FFC712" stroke-opacity="0.4" stroke-width="1.07928"/>
<path id="Vector 17" d="M894.542 237.441L46.2322 237.441" stroke="#FFC712" stroke-opacity="0.4" stroke-width="1.07928"/>
<path id="Vector 18" d="M813.597 150.019L140.129 150.019" stroke="#FFC712" stroke-opacity="0.4" stroke-width="1.07928"/>
<path id="Vector 21" d="M813.597 69.0736L140.129 69.0736" stroke="#FFC712" stroke-opacity="0.4" stroke-width="1.07928"/>
</g>
</g>
</g>
<defs>
<clipPath id="clip0_269_1092">
</clipPath>
</defs>
</svg>
