<svg width="1510" height="497" viewBox="0 0 1510 497" fill="none" xmlns="http://www.w3.org/2000/svg">
<path d="M58.8695 274.187C24.7871 274.187 5.28549 254.321 5.28549 221.697V167.748H39.0033V220.603C39.0033 235.184 47.2049 243.021 59.234 243.021C70.534 243.021 78.1889 234.273 78.1889 221.697V216.229C78.1889 203.106 69.2582 196.727 61.0566 196.727C55.5888 196.727 52.1259 198.368 50.3033 199.643L50.1211 169.206C53.9485 167.201 61.6033 165.561 67.0711 165.561C95.8679 165.561 112.089 186.339 112.089 215.864V221.879C112.089 251.04 91.8582 274.187 58.8695 274.187ZM213.933 190.713C213.933 199.826 212.839 202.924 207.007 214.953L187.688 256.69C183.678 264.892 183.314 267.626 182.949 272H147.591C147.591 261.976 149.413 258.148 155.792 245.573L172.743 210.397C175.112 205.476 176.57 202.742 176.57 199.643V198.732H120.434V142.779H154.152V167.748H213.933V190.713ZM226.019 272V241.016H246.979L225.837 167.748H259.554L280.15 239.74C291.45 237.189 296.188 229.716 296.188 215.318V167.748H329.906V215.135C329.906 259.424 305.119 272 270.672 272H226.019ZM342.596 272V167.748H376.314V272H342.596ZM389.05 272V167.748H422.768V272H389.05ZM486.199 272V167.748H504.424V272H486.199ZM579.202 274.369C547.306 274.369 528.716 253.956 528.716 220.785V167.748H546.577V220.421C546.577 244.843 560.429 257.419 579.202 257.419C600.161 257.419 611.644 240.834 611.644 220.421V215.5C611.644 191.624 596.516 182.511 583.211 182.511C576.468 182.511 571.547 184.698 568.995 186.339V169.206C572.823 167.019 580.66 165.561 585.763 165.561C613.466 165.561 629.687 186.703 629.687 215.5V220.603C629.687 250.676 610.55 274.369 579.202 274.369ZM654.638 272V255.05H694.917C714.966 255.05 726.266 239.193 726.266 220.785V216.047C726.266 196.545 714.783 182.147 695.464 182.147H694.917C678.514 182.147 666.849 196.181 666.849 211.672V212.037C666.849 222.972 669.948 229.898 671.953 232.997H653.544C652.086 230.445 648.623 222.972 648.623 210.579V210.214C648.623 182.693 669.583 165.197 694.735 165.197H695.464C724.808 165.197 744.491 185.792 744.491 215.864V220.785C744.491 252.316 723.896 272 695.464 272H654.638ZM766.172 223.337V167.748H784.397V223.337H766.172ZM873.391 222.426C873.391 199.461 863.184 184.88 835.663 184.88H806.32L806.502 167.748H838.579C873.391 167.748 891.252 185.61 891.252 221.697V272H873.391V222.426ZM955.782 255.597C957.422 256.144 960.703 257.055 964.712 257.055C980.204 257.055 991.322 246.666 991.322 224.613V184.698H914.773V167.748H1009.37V225.16C1009.37 253.045 994.603 274.005 967.082 274.005C961.614 274.005 958.333 272.911 955.782 272.182V255.597ZM916.414 296.969V210.761H934.275V296.969H916.414Z" fill="black"/>
<path d="M8.28307 361V334.937H19.4008C27.2379 334.937 30.8376 339.812 30.8376 346.328V361H8.28307ZM10.1057 359.177H29.0605V346.328C29.0605 340.177 26.1444 336.76 19.492 336.76H10.1057V359.177ZM65.9579 348.834V334.937H67.7805V348.834H65.9579ZM117.654 361V336.76H101.98V334.937H124.078V336.76H119.522V361H117.654ZM175.89 348.379C175.89 341.362 172.928 336.76 164.271 336.76H157.163L157.208 334.937H164.271C173.11 334.937 177.667 339.357 177.667 348.379V361H175.89V348.379ZM212.863 361V334.937H222.158C230.906 334.937 235.508 339.311 235.508 348.242V361H233.686V348.242C233.686 341.316 230.724 336.76 222.158 336.76H214.685V361H212.863ZM288.957 337.261C288.957 339.448 288.502 340.405 286.77 344.323L282.214 354.439C280.346 358.585 280.255 359.815 280.255 361H278.386C278.386 359.451 278.386 358.722 280.847 353.3L285.312 343.366C286.634 340.405 287.18 339.812 287.18 337.261V336.76H268.863V328.695H270.64V334.937H288.957V337.261ZM364.707 361V334.937H366.529V361H364.707ZM413.806 361.592C406.242 361.592 401.64 356.398 401.64 347.969V334.937H403.417V347.969C403.417 355.851 407.837 359.815 413.806 359.815C420.686 359.815 424.331 354.302 424.331 347.877V346.829C424.331 338.947 419.456 336.167 415.172 336.167C413.213 336.167 411.71 336.805 410.981 337.261V335.302C411.983 334.755 413.942 334.345 415.218 334.345C422.007 334.345 426.108 339.812 426.108 346.829V347.877C426.108 355.578 421.415 361.592 413.806 361.592ZM461.025 361V359.177H470.821C477.474 359.177 480.8 354.029 480.8 347.923V346.966C480.8 340.633 476.972 336.122 470.548 336.122H470.457C465.08 336.122 461.116 340.405 461.116 345.417V345.508C461.116 348.971 462.301 351.021 462.893 351.75H460.934C460.478 351.021 459.339 348.88 459.339 345.508V345.417C459.339 338.673 464.488 334.299 470.502 334.299H470.639C477.656 334.299 482.622 339.311 482.622 346.966V347.923C482.622 355.851 477.884 361 470.867 361H461.025ZM516.996 348.834V334.937H518.818V348.834H516.996ZM571.745 348.379C571.745 341.362 568.783 336.76 560.126 336.76H553.018L553.063 334.937H560.126C568.965 334.937 573.522 339.357 573.522 348.379V361H571.745V348.379ZM617.831 359.269C618.241 359.451 619.334 359.633 620.337 359.633C625.44 359.633 629.085 356.307 629.085 349.108V336.76H608.353V334.937H630.908V349.108C630.908 356.352 627.217 361.456 620.382 361.456C619.38 361.456 618.469 361.273 617.831 361.046V359.269ZM608.9 367.242V345.098H610.723V367.242H608.9ZM686.585 348.379C686.585 341.362 683.669 336.76 674.966 336.76H665.853V334.937H674.966C683.806 334.937 688.362 339.357 688.362 348.379V361H686.585V348.379ZM666.4 361V346.192H668.223V361H666.4ZM764.433 361V334.937H775.551C783.388 334.937 786.987 339.812 786.987 346.328V361H764.433ZM766.256 359.177H785.21V346.328C785.21 340.177 782.294 336.76 775.642 336.76H766.256V359.177ZM841.017 337.261C841.017 339.448 840.561 340.405 838.83 344.323L834.274 354.439C832.405 358.585 832.314 359.815 832.314 361H830.446C830.446 359.451 830.446 358.722 832.907 353.3L837.372 343.366C838.693 340.405 839.24 339.812 839.24 337.261V336.76H820.923V328.695H822.7V334.937H841.017V337.261ZM876.089 361V334.937H877.912V361H876.089ZM913.068 361V359.177H919.948C920.677 359.177 921.406 359.177 922.09 359.132L912.977 334.937H914.936L923.821 358.95C930.884 358.084 933.845 354.439 933.845 346.465V334.937H935.668V346.374C935.668 357.81 929.335 361 920.541 361H913.068Z" fill="black"/>
<circle cx="495" cy="162" r="20" fill="#E2B123"/>
<path d="M1074.65 270.486C1081.42 267.856 1090.77 265.146 1097.83 263.288C1104.73 261.528 1112.74 259.829 1119.76 258.436C1173.28 248.346 1228.45 246.971 1282.71 249.212L1312.31 251.016L1282.68 250.293C1277.53 250.308 1265.39 250.359 1260.47 250.374C1218.97 251.021 1176.9 254.188 1136.07 262.155C1139.44 282.243 1149.68 301.286 1166.47 315.446C1204.07 347.151 1260.25 342.375 1291.96 304.778C1305.82 288.343 1312.71 268.357 1312.93 248.416C1333.53 246.333 1353.87 242.394 1373.78 235.023C1376.93 273.255 1365.55 312.692 1338.86 344.335C1285.31 407.836 1190.42 415.903 1126.92 362.351C1100.18 339.803 1083.27 309.926 1076.65 278.149C1075.56 275.192 1074.65 270.486 1074.65 270.486ZM1177.02 400.954C1177.62 399.218 1179.44 398.218 1181.23 398.642L1190.55 400.854C1192.6 401.343 1193.79 403.5 1193.1 405.498L1186.81 423.727C1186.17 425.593 1184.13 426.585 1182.27 425.941L1173.26 422.832C1171.39 422.188 1170.4 420.152 1171.04 418.286L1177.02 400.954ZM1155.34 392.243C1156.03 390.245 1158.29 389.278 1160.21 390.162L1168.91 394.168C1170.58 394.937 1171.4 396.844 1170.8 398.581L1164.82 415.914C1164.17 417.78 1162.14 418.771 1160.27 418.127L1151.26 415.017C1149.39 414.373 1148.4 412.339 1149.05 410.473L1155.34 392.243ZM1108.9 150.405C1162.45 86.904 1257.34 78.8383 1320.85 132.389C1343.84 151.777 1359.56 176.586 1367.72 203.36C1388.34 198.77 1408.43 192.061 1427.55 182.4C1437.23 177.73 1446.62 172.353 1456.19 166.928L1457.56 168.646C1442.24 184.957 1424.24 198.596 1404.4 209.054C1342.31 242.074 1275.4 234.062 1208.36 235.528C1192.27 236.076 1175.97 237.026 1159.97 238.735C1152.61 239.51 1143.27 240.623 1136 241.782L1128.11 243.03C1125.55 243.588 1118.92 244.843 1116.41 245.458C1116.02 245.546 1115.63 245.639 1115.24 245.73C1112.12 246.544 1108.16 247.571 1106.34 248.114C1103.46 249.014 1099.15 250.327 1096.31 251.24C1094.85 251.75 1088.11 254.255 1086.43 254.838C1083.89 255.935 1077.15 258.62 1074.83 259.823C1074.56 259.95 1074.29 260.079 1074.02 260.207C1074.02 260.195 1074.02 260.183 1074.02 260.172C1043.22 275.161 1017.62 298.859 1005.14 332.713C1003.32 337.731 1001.76 343.004 1000.95 348.26L998.763 348.064C1001.01 325.702 1011.18 304.854 1025.03 287.429C1038.15 271.197 1055.05 258.276 1073.48 248.566C1073.19 213.908 1084.8 178.978 1108.9 150.405ZM1281.29 179.294C1243.69 147.589 1187.51 152.365 1155.81 189.961C1146.43 201.08 1140.24 213.825 1137.15 227.081C1160.27 222.528 1183.94 219.829 1207.32 217.959C1238.41 215.592 1274.06 213.772 1305.11 211.58C1305.22 211.574 1305.33 211.566 1305.43 211.56C1300.14 199.471 1292.06 188.378 1281.29 179.294ZM998.763 348.064C998.762 348.067 998.762 348.07 998.762 348.073L998.758 348.064L998.763 348.064ZM1287.89 82.5448C1288.54 80.6789 1290.57 79.6881 1292.44 80.332L1301.45 83.4406C1303.31 84.0845 1304.3 86.1202 1303.66 87.9862L1297.37 106.215C1296.68 108.214 1294.42 109.18 1292.5 108.296L1283.8 104.29C1282.13 103.522 1281.31 101.614 1281.91 99.8777L1287.89 82.5448ZM1265.9 74.7312C1266.54 72.8652 1268.58 71.8748 1270.44 72.5187L1279.45 75.6278C1281.32 76.2717 1282.31 78.3062 1281.67 80.1721L1275.69 97.505C1275.09 99.2413 1273.27 100.241 1271.48 99.8172L1262.16 97.6049C1260.11 97.1167 1258.92 94.9595 1259.61 92.9612L1265.9 74.7312Z" fill="url(#paint0_radial_138_33)"/>
<defs>
<radialGradient id="paint0_radial_138_33" cx="0" cy="0" r="1" gradientTransform="matrix(373.042 86.7315 -278.851 348.803 1060.56 170.282)" gradientUnits="userSpaceOnUse">
<stop stop-color="#6D4FBE"/>
<stop offset="0.650102" stop-color="#3A40B7"/>
<stop offset="1" stop-color="#262A78"/>
</radialGradient>
</defs>
</svg>
