<svg width="1510" height="497" viewBox="0 0 1510 497" fill="none" xmlns="http://www.w3.org/2000/svg">
<path d="M58.8695 274.186C24.7871 274.186 5.28549 254.32 5.28549 221.696V167.747H39.0033V220.602C39.0033 235.183 47.2049 243.02 59.234 243.02C70.534 243.02 78.1889 234.272 78.1889 221.696V216.228C78.1889 203.105 69.2582 196.726 61.0566 196.726C55.5888 196.726 52.1259 198.367 50.3033 199.642L50.1211 169.205C53.9485 167.2 61.6033 165.56 67.0711 165.56C95.8679 165.56 112.089 186.338 112.089 215.863V221.878C112.089 251.039 91.8582 274.186 58.8695 274.186ZM213.933 190.712C213.933 199.825 212.839 202.923 207.007 214.952L187.688 256.689C183.678 264.891 183.314 267.625 182.949 271.999H147.591C147.591 261.975 149.413 258.147 155.792 245.572L172.743 210.396C175.112 205.475 176.57 202.741 176.57 199.642V198.731H120.434V142.778H154.152V167.747H213.933V190.712ZM226.019 271.999V241.015H246.979L225.837 167.747H259.554L280.15 239.739C291.45 237.188 296.188 229.715 296.188 215.317V167.747H329.906V215.134C329.906 259.423 305.119 271.999 270.672 271.999H226.019ZM342.596 271.999V167.747H376.314V271.999H342.596ZM389.05 271.999V167.747H422.768V271.999H389.05ZM486.199 271.999V167.747H504.424V271.999H486.199ZM579.202 274.368C547.306 274.368 528.716 253.955 528.716 220.784V167.747H546.577V220.42C546.577 244.843 560.429 257.418 579.202 257.418C600.161 257.418 611.644 240.833 611.644 220.42V215.499C611.644 191.623 596.516 182.51 583.211 182.51C576.468 182.51 571.547 184.697 568.995 186.338V169.205C572.823 167.018 580.66 165.56 585.763 165.56C613.466 165.56 629.687 186.702 629.687 215.499V220.602C629.687 250.675 610.55 274.368 579.202 274.368ZM654.638 271.999V255.049H694.917C714.966 255.049 726.266 239.193 726.266 220.784V216.046C726.266 196.544 714.783 182.146 695.464 182.146H694.917C678.514 182.146 666.849 196.18 666.849 211.671V212.036C666.849 222.972 669.948 229.897 671.953 232.996H653.544C652.086 230.444 648.623 222.972 648.623 210.578V210.213C648.623 182.692 669.583 165.196 694.735 165.196H695.464C724.808 165.196 744.491 185.791 744.491 215.863V220.784C744.491 252.315 723.896 271.999 695.464 271.999H654.638ZM766.172 223.336V167.747H784.397V223.336H766.172ZM873.391 222.425C873.391 199.46 863.184 184.88 835.663 184.88H806.32L806.502 167.747H838.579C873.391 167.747 891.252 185.609 891.252 221.696V271.999H873.391V222.425ZM955.782 255.596C957.422 256.143 960.703 257.054 964.712 257.054C980.204 257.054 991.322 246.665 991.322 224.612V184.697H914.773V167.747H1009.37V225.159C1009.37 253.044 994.603 274.004 967.082 274.004C961.614 274.004 958.333 272.91 955.782 272.181V255.596ZM916.414 296.968V210.76H934.275V296.968H916.414Z" fill="white"/>
<path d="M8.28307 360.999V334.936H19.4008C27.2379 334.936 30.8376 339.811 30.8376 346.327V360.999H8.28307ZM10.1057 359.176H29.0605V346.327C29.0605 340.176 26.1444 336.759 19.492 336.759H10.1057V359.176ZM65.9579 348.833V334.936H67.7805V348.833H65.9579ZM117.654 360.999V336.759H101.98V334.936H124.078V336.759H119.522V360.999H117.654ZM175.89 348.378C175.89 341.361 172.928 336.759 164.271 336.759H157.163L157.208 334.936H164.271C173.11 334.936 177.667 339.356 177.667 348.378V360.999H175.89V348.378ZM212.863 360.999V334.936H222.158C230.906 334.936 235.508 339.31 235.508 348.241V360.999H233.686V348.241C233.686 341.315 230.724 336.759 222.158 336.759H214.685V360.999H212.863ZM288.957 337.26C288.957 339.447 288.502 340.404 286.77 344.322L282.214 354.438C280.346 358.584 280.255 359.814 280.255 360.999H278.386C278.386 359.45 278.386 358.721 280.847 353.299L285.312 343.366C286.634 340.404 287.18 339.811 287.18 337.26V336.759H268.863V328.694H270.64V334.936H288.957V337.26ZM364.707 360.999V334.936H366.529V360.999H364.707ZM413.806 361.591C406.242 361.591 401.64 356.397 401.64 347.968V334.936H403.417V347.968C403.417 355.85 407.837 359.814 413.806 359.814C420.686 359.814 424.331 354.301 424.331 347.876V346.828C424.331 338.946 419.456 336.166 415.172 336.166C413.213 336.166 411.71 336.804 410.981 337.26V335.301C411.983 334.754 413.942 334.344 415.218 334.344C422.007 334.344 426.108 339.811 426.108 346.828V347.876C426.108 355.577 421.415 361.591 413.806 361.591ZM461.025 360.999V359.176H470.821C477.474 359.176 480.8 354.028 480.8 347.922V346.965C480.8 340.632 476.972 336.121 470.548 336.121H470.457C465.08 336.121 461.116 340.404 461.116 345.416V345.507C461.116 348.97 462.301 351.02 462.893 351.749H460.934C460.478 351.02 459.339 348.879 459.339 345.507V345.416C459.339 338.672 464.488 334.298 470.502 334.298H470.639C477.656 334.298 482.622 339.31 482.622 346.965V347.922C482.622 355.85 477.884 360.999 470.867 360.999H461.025ZM516.996 348.833V334.936H518.818V348.833H516.996ZM571.745 348.378C571.745 341.361 568.783 336.759 560.126 336.759H553.018L553.063 334.936H560.126C568.965 334.936 573.522 339.356 573.522 348.378V360.999H571.745V348.378ZM617.831 359.268C618.241 359.45 619.334 359.632 620.337 359.632C625.44 359.632 629.085 356.306 629.085 349.107V336.759H608.353V334.936H630.908V349.107C630.908 356.351 627.217 361.455 620.382 361.455C619.38 361.455 618.469 361.272 617.831 361.045V359.268ZM608.9 367.241V345.097H610.723V367.241H608.9ZM686.585 348.378C686.585 341.361 683.669 336.759 674.966 336.759H665.853V334.936H674.966C683.806 334.936 688.362 339.356 688.362 348.378V360.999H686.585V348.378ZM666.4 360.999V346.191H668.223V360.999H666.4ZM764.433 360.999V334.936H775.551C783.388 334.936 786.987 339.811 786.987 346.327V360.999H764.433ZM766.256 359.176H785.21V346.327C785.21 340.176 782.294 336.759 775.642 336.759H766.256V359.176ZM841.017 337.26C841.017 339.447 840.561 340.404 838.83 344.322L834.274 354.438C832.405 358.584 832.314 359.814 832.314 360.999H830.446C830.446 359.45 830.446 358.721 832.907 353.299L837.372 343.366C838.693 340.404 839.24 339.811 839.24 337.26V336.759H820.923V328.694H822.7V334.936H841.017V337.26ZM876.089 360.999V334.936H877.912V360.999H876.089ZM913.068 360.999V359.176H919.948C920.677 359.176 921.406 359.176 922.09 359.131L912.977 334.936H914.936L923.821 358.949C930.884 358.083 933.845 354.438 933.845 346.464V334.936H935.668V346.373C935.668 357.81 929.335 360.999 920.541 360.999H913.068Z" fill="white"/>
<circle cx="495" cy="161.999" r="20" fill="#E2B123"/>
<path d="M1074.65 270.485C1081.42 267.856 1090.77 265.145 1097.83 263.288C1104.73 261.528 1112.74 259.829 1119.76 258.435C1173.28 248.345 1228.45 246.97 1282.71 249.211L1312.31 251.015L1282.68 250.292C1277.53 250.307 1265.39 250.358 1260.47 250.373C1218.97 251.02 1176.9 254.187 1136.06 262.154C1139.44 282.242 1149.68 301.284 1166.47 315.444C1204.07 347.15 1260.25 342.374 1291.96 304.778C1305.82 288.343 1312.7 268.356 1312.93 248.415C1333.53 246.331 1353.87 242.393 1373.78 235.021C1376.93 273.253 1365.55 312.69 1338.86 344.333C1285.31 407.834 1190.42 415.901 1126.92 362.349C1100.18 339.803 1083.27 309.929 1076.65 278.154C1075.56 275.202 1074.65 270.501 1074.65 270.485ZM1177.02 400.953C1177.62 399.216 1179.44 398.217 1181.23 398.641L1190.55 400.854C1192.6 401.342 1193.79 403.499 1193.1 405.497L1186.81 423.727C1186.17 425.593 1184.13 426.584 1182.26 425.94L1173.26 422.831C1171.39 422.187 1170.4 420.152 1171.04 418.286L1177.02 400.953ZM1155.34 392.241C1156.03 390.243 1158.29 389.278 1160.21 390.162L1168.91 394.168C1170.58 394.936 1171.4 396.844 1170.8 398.58L1164.82 415.913C1164.17 417.779 1162.14 418.769 1160.27 418.125L1151.26 415.016C1149.39 414.372 1148.4 412.338 1149.05 410.472L1155.34 392.241ZM1108.9 150.405C1162.45 86.9038 1257.34 78.8373 1320.85 132.389C1343.84 151.777 1359.56 176.585 1367.72 203.359C1388.34 198.769 1408.43 192.06 1427.55 182.399C1437.23 177.729 1446.62 172.352 1456.19 166.927L1457.56 168.645C1442.24 184.957 1424.24 198.595 1404.4 209.053C1342.31 242.074 1275.4 234.062 1208.36 235.527C1192.27 236.075 1175.97 237.025 1159.97 238.735C1152.61 239.51 1143.27 240.622 1136 241.782L1128.11 243.029C1125.55 243.587 1118.92 244.842 1116.41 245.457C1116.02 245.546 1115.63 245.638 1115.24 245.729C1112.11 246.543 1108.16 247.571 1106.34 248.113C1103.46 249.014 1099.15 250.326 1096.31 251.239C1094.85 251.748 1088.11 254.254 1086.43 254.837C1083.89 255.935 1077.15 258.619 1074.83 259.822C1074.56 259.949 1074.29 260.077 1074.02 260.205C1074.02 260.194 1074.02 260.183 1074.02 260.172C1043.22 275.16 1017.62 298.859 1005.14 332.713C1003.31 337.73 1001.76 343.004 1000.95 348.259L998.762 348.063C1001.01 325.701 1011.18 304.854 1025.03 287.429C1038.15 271.196 1055.05 258.275 1073.48 248.565C1073.19 213.907 1084.8 178.978 1108.9 150.405ZM1281.29 179.293C1243.69 147.588 1187.51 152.364 1155.81 189.96C1146.43 201.079 1140.24 213.824 1137.15 227.08C1160.27 222.527 1183.94 219.828 1207.32 217.959C1238.41 215.592 1274.06 213.771 1305.11 211.579C1305.22 211.573 1305.33 211.566 1305.44 211.56C1300.14 199.471 1292.06 188.377 1281.29 179.293ZM998.762 348.063C998.762 348.066 998.762 348.069 998.762 348.072L998.758 348.063L998.762 348.063ZM1287.89 82.5441C1288.54 80.6781 1290.57 79.6874 1292.44 80.3313L1301.45 83.4399C1303.31 84.0838 1304.3 86.1195 1303.66 87.9855L1297.37 106.215C1296.68 108.213 1294.42 109.179 1292.5 108.295L1283.8 104.289C1282.13 103.521 1281.31 101.613 1281.91 99.877L1287.89 82.5441ZM1265.9 74.7305C1266.54 72.8645 1268.58 71.8741 1270.44 72.518L1279.45 75.6271C1281.32 76.271 1282.31 78.3055 1281.67 80.1714L1275.69 97.5043C1275.09 99.2407 1273.27 100.241 1271.48 99.8165L1262.16 97.6042C1260.1 97.116 1258.92 94.9588 1259.61 92.9605L1265.9 74.7305Z" fill="white"/>
</svg>
