<svg width="649" height="500" viewBox="0 0 649 500" fill="none" xmlns="http://www.w3.org/2000/svg">
<path fill-rule="evenodd" clip-rule="evenodd" d="M107.198 279.916C116.767 276.202 129.967 272.374 139.949 269.75C149.69 267.264 161.002 264.863 170.923 262.895C246.516 248.642 324.446 246.7 401.099 249.866L442.907 252.413L401.06 251.393C393.774 251.414 376.631 251.487 369.683 251.508C311.066 252.422 251.63 256.895 193.953 268.149C198.717 296.524 213.186 323.421 236.903 343.422C290.011 388.208 369.369 381.462 414.156 328.355C433.732 305.14 443.463 276.91 443.779 248.744C472.886 245.801 501.608 240.236 529.737 229.822C534.186 283.827 518.105 339.533 480.412 384.23C404.767 473.929 270.729 485.322 181.029 409.678C143.254 377.822 119.365 335.609 110.017 290.714C108.474 286.535 107.198 279.916 107.198 279.916ZM251.808 464.208C252.655 461.755 255.222 460.343 257.747 460.942L270.911 464.067C273.816 464.757 275.492 467.804 274.518 470.627L265.631 496.377C264.721 499.013 261.847 500.412 259.211 499.502L246.484 495.11C243.849 494.2 242.45 491.326 243.359 488.691L251.808 464.208ZM221.178 451.904C222.152 449.081 225.35 447.715 228.062 448.964L240.352 454.623C242.708 455.708 243.859 458.403 243.013 460.856L234.564 485.34C233.654 487.975 230.78 489.375 228.144 488.465L215.417 484.073C212.781 483.164 211.382 480.289 212.292 477.653L221.178 451.904ZM155.58 110.296C231.224 20.5966 365.263 9.2025 454.963 84.8467C487.439 112.234 509.647 147.277 521.179 185.098C550.303 178.614 578.681 169.137 605.685 155.491C619.365 148.894 632.627 141.299 646.145 133.636L648.083 136.063C626.44 159.103 601.01 178.368 572.983 193.141C485.287 239.785 390.764 228.466 296.068 230.536C273.35 231.31 250.316 232.653 227.714 235.068C217.317 236.162 204.135 237.734 193.854 239.371L182.721 241.133C179.092 241.922 169.733 243.694 166.184 244.563C165.747 244.662 165.311 244.763 164.875 244.864C160.41 246.027 154.607 247.528 151.959 248.314C147.903 249.587 141.814 251.441 137.796 252.73C135.737 253.45 126.21 256.99 123.843 257.813C120.258 259.363 110.734 263.155 107.46 264.855C107.077 265.034 106.694 265.212 106.312 265.393C106.31 265.378 106.309 265.363 106.307 265.348C62.8067 286.52 26.6369 319.996 9.00943 367.816C6.43613 374.903 4.24035 382.352 3.09313 389.776L0.00534529 389.498C3.18085 357.911 17.5476 328.464 37.1062 303.851C55.6435 280.922 79.505 262.672 105.539 248.957C105.126 199.999 121.542 150.659 155.58 110.296ZM399.088 151.102C345.981 106.316 266.622 113.062 221.836 166.169C208.591 181.875 199.854 199.879 195.49 218.604C228.144 212.173 261.571 208.36 294.603 205.719C338.52 202.376 388.882 199.805 432.737 196.708C432.89 196.699 433.043 196.69 433.195 196.681C425.713 179.604 414.304 163.933 399.088 151.102ZM0.00534529 389.498C0.00489717 389.503 0.00529326 389.507 0.00484546 389.512L-0.00034211 389.498L0.00534529 389.498ZM408.417 14.4413C409.327 11.8055 412.201 10.4057 414.836 11.3151L427.563 15.707C430.199 16.6166 431.598 19.4909 430.689 22.1267L421.803 47.8774C420.829 50.7001 417.631 52.0652 414.919 50.8163L402.629 45.1571C400.272 44.0719 399.122 41.377 399.968 38.9243L408.417 14.4413ZM377.35 3.40322C378.259 0.767592 381.133 -0.631603 383.769 0.277954L396.496 4.66987C399.132 5.57963 400.531 8.45385 399.621 11.0895L391.172 35.5726C390.326 38.0253 387.758 39.4371 385.234 38.8379L372.07 35.7133C369.164 35.0236 367.489 31.9763 368.463 29.1536L377.35 3.40322Z" fill="url(#paint0_radial_123_154)"/>
<defs>
<radialGradient id="paint0_radial_123_154" cx="0" cy="0" r="1" gradientTransform="matrix(526.94 122.512 -393.891 492.701 87.3033 138.372)" gradientUnits="userSpaceOnUse">
<stop stop-color="#6D4FBE"/>
<stop offset="0.650102" stop-color="#3A40B7"/>
<stop offset="1" stop-color="#262A78"/>
</radialGradient>
</defs>
</svg>
