<svg width="3148" height="1021" viewBox="0 0 3148 1021" fill="none" xmlns="http://www.w3.org/2000/svg">
<path d="M120.483 548.504C50.7296 548.504 10.8173 507.845 10.8173 441.076V330.665H79.8245V438.838C79.8245 468.679 96.61 484.719 121.229 484.719C144.355 484.719 160.022 466.814 160.022 441.076V429.886C160.022 403.029 141.744 389.974 124.959 389.974C113.769 389.974 106.681 393.331 102.951 395.942L102.578 333.649C110.411 329.546 126.078 326.189 137.268 326.189C196.204 326.189 229.402 368.712 229.402 429.14V441.449C229.402 501.131 187.998 548.504 120.483 548.504ZM437.837 377.664C437.837 396.315 435.599 402.656 423.662 427.275L384.123 512.695C375.917 529.48 375.171 535.075 374.425 544.028H302.061C302.061 523.512 305.791 515.679 318.846 489.941L353.536 417.95C358.385 407.878 361.369 402.283 361.369 395.942V394.077H246.482V279.562H315.489V330.665H437.837V377.664ZM462.572 544.028V480.616H505.469L462.199 330.665H531.206L573.357 478.004C596.483 472.782 606.182 457.489 606.182 428.021V330.665H675.189V427.648C675.189 518.29 624.459 544.028 553.96 544.028H462.572ZM701.16 544.028V330.665H770.167V544.028H701.16ZM796.234 544.028V330.665H865.241V544.028H796.234ZM995.058 544.028V330.665H1032.36V544.028H995.058ZM1185.4 548.877C1120.12 548.877 1082.07 507.099 1082.07 439.211V330.665H1118.63V438.465C1118.63 488.449 1146.98 514.187 1185.4 514.187C1228.29 514.187 1251.79 480.243 1251.79 438.465V428.394C1251.79 379.529 1220.83 360.879 1193.6 360.879C1179.8 360.879 1169.73 365.355 1164.51 368.712V333.649C1172.34 329.173 1188.38 326.189 1198.83 326.189C1255.52 326.189 1288.72 369.458 1288.72 428.394V438.838C1288.72 500.385 1249.56 548.877 1185.4 548.877ZM1339.79 544.028V509.337H1422.22C1463.25 509.337 1486.38 476.885 1486.38 439.211V429.513C1486.38 389.601 1462.88 360.133 1423.34 360.133H1422.22C1388.65 360.133 1364.78 388.855 1364.78 420.561V421.307C1364.78 443.687 1371.12 457.862 1375.22 464.203H1337.55C1334.57 458.981 1327.48 443.687 1327.48 418.323V417.577C1327.48 361.252 1370.37 325.443 1421.85 325.443H1423.34C1483.4 325.443 1523.68 367.593 1523.68 429.14V439.211C1523.68 503.742 1481.53 544.028 1423.34 544.028H1339.79ZM1568.05 444.433V330.665H1605.35V444.433H1568.05ZM1787.49 442.568C1787.49 395.569 1766.6 365.728 1710.28 365.728H1650.22L1650.59 330.665H1716.24C1787.49 330.665 1824.04 367.22 1824.04 441.076V544.028H1787.49V442.568ZM1956.11 510.456C1959.47 511.576 1966.18 513.441 1974.39 513.441C2006.09 513.441 2028.85 492.179 2028.85 447.045V365.355H1872.18V330.665H2065.78V448.164C2065.78 505.234 2035.56 548.131 1979.24 548.131C1968.05 548.131 1961.33 545.893 1956.11 544.401V510.456ZM1875.54 595.13V418.696H1912.09V595.13H1875.54Z" fill="white"/>
<path d="M24.1701 699.315V645.975H46.9238C62.9633 645.975 70.3302 655.953 70.3302 669.288V699.315H24.1701ZM27.9002 695.585H66.6934V669.288C66.6934 656.699 60.7252 649.705 47.1103 649.705H27.9002V695.585ZM142.208 674.417V645.975H145.938V674.417H142.208ZM248.009 699.315V649.705H215.93V645.975H261.158V649.705H251.832V699.315H248.009ZM367.195 673.484C367.195 659.123 361.134 649.705 343.416 649.705H328.868L328.961 645.975H343.416C361.507 645.975 370.832 655.02 370.832 673.484V699.315H367.195V673.484ZM442.865 699.315V645.975H461.888C479.793 645.975 489.211 654.927 489.211 673.204V699.315H485.481V673.204C485.481 659.03 479.42 649.705 461.888 649.705H446.595V699.315H442.865ZM598.601 650.73C598.601 655.207 597.668 657.165 594.124 665.185L584.799 685.887C580.976 694.373 580.789 696.891 580.789 699.315H576.966C576.966 696.145 576.966 694.653 582.002 683.555L591.14 663.226C593.845 657.165 594.964 655.953 594.964 650.73V649.705H557.476V633.199H561.113V645.975H598.601V650.73ZM753.63 699.315V645.975H757.36V699.315H753.63ZM854.116 700.527C838.636 700.527 829.217 689.897 829.217 672.645V645.975H832.854V672.645C832.854 688.778 841.9 696.891 854.116 696.891C868.197 696.891 875.657 685.607 875.657 672.458V670.314C875.657 654.181 865.679 648.492 856.913 648.492C852.903 648.492 849.826 649.798 848.334 650.73V646.721C850.386 645.602 854.395 644.762 857.006 644.762C870.901 644.762 879.294 655.953 879.294 670.314V672.458C879.294 688.218 869.689 700.527 854.116 700.527ZM950.755 699.315V695.585H970.804C984.419 695.585 991.227 685.047 991.227 672.552V670.593C991.227 657.631 983.393 648.399 970.245 648.399H970.058C959.054 648.399 950.941 657.165 950.941 667.423V667.609C950.941 674.696 953.366 678.893 954.578 680.385H950.568C949.636 678.893 947.304 674.51 947.304 667.609V667.423C947.304 653.621 957.842 644.669 970.151 644.669H970.431C984.792 644.669 994.957 654.927 994.957 670.593V672.552C994.957 688.778 985.258 699.315 970.897 699.315H950.755ZM1065.31 674.417V645.975H1069.04V674.417H1065.31ZM1177.35 673.484C1177.35 659.123 1171.29 649.705 1153.58 649.705H1139.03L1139.12 645.975H1153.58C1171.67 645.975 1180.99 655.02 1180.99 673.484V699.315H1177.35V673.484ZM1271.68 695.772C1272.51 696.145 1274.75 696.518 1276.8 696.518C1287.25 696.518 1294.71 689.71 1294.71 674.976V649.705H1252.28V645.975H1298.44V674.976C1298.44 689.803 1290.89 700.248 1276.9 700.248C1274.85 700.248 1272.98 699.875 1271.68 699.408V695.772ZM1253.4 712.091V666.77H1257.13V712.091H1253.4ZM1412.39 673.484C1412.39 659.123 1406.42 649.705 1388.61 649.705H1369.96V645.975H1388.61C1406.7 645.975 1416.03 655.02 1416.03 673.484V699.315H1412.39V673.484ZM1371.08 699.315V669.008H1374.81V699.315H1371.08ZM1571.71 699.315V645.975H1594.47C1610.51 645.975 1617.87 655.953 1617.87 669.288V699.315H1571.71ZM1575.44 695.585H1614.24V669.288C1614.24 656.699 1608.27 649.705 1594.65 649.705H1575.44V695.585ZM1728.45 650.73C1728.45 655.207 1727.52 657.165 1723.97 665.185L1714.65 685.887C1710.83 694.373 1710.64 696.891 1710.64 699.315H1706.82C1706.82 696.145 1706.82 694.653 1711.85 683.555L1720.99 663.226C1723.69 657.165 1724.81 655.953 1724.81 650.73V649.705H1687.33V633.199H1690.96V645.975H1728.45V650.73ZM1800.23 699.315V645.975H1803.96V699.315H1800.23ZM1875.91 699.315V695.585H1889.99C1891.48 695.585 1892.98 695.585 1894.37 695.492L1875.72 645.975H1879.73L1897.92 695.119C1912.37 693.347 1918.43 685.887 1918.43 669.568V645.975H1922.16V669.381C1922.16 692.787 1909.2 699.315 1891.2 699.315H1875.91Z" fill="white"/>
<circle cx="1010.24" cy="304.991" r="38.8554" fill="#E2B123"/>
<path d="M2253.12 556.559C2267.06 551.148 2286.29 545.572 2300.83 541.75C2315.02 538.129 2331.5 534.633 2345.95 531.765C2456.06 511.005 2569.57 508.175 2681.23 512.786L2742.13 516.498L2681.17 515.011C2670.56 515.042 2645.59 515.147 2635.47 515.177C2550.08 516.509 2463.51 523.026 2379.5 539.419C2386.44 580.742 2407.52 619.912 2442.06 649.042C2519.41 714.278 2635.01 704.451 2700.25 627.094C2728.77 593.277 2742.94 552.153 2743.4 511.123C2785.79 506.835 2827.63 498.728 2868.6 483.56C2875.09 562.227 2851.66 643.373 2796.76 708.482L2795.46 710.009C2685.05 839.268 2490.82 855.307 2360.67 745.552L2359.14 744.257C2305.02 698.028 2270.75 637.105 2257.25 572.344C2254.99 566.261 2253.12 556.559 2253.12 556.559ZM2463.77 824.995C2465 821.422 2468.74 819.366 2472.42 820.238L2491.6 824.79C2495.83 825.795 2498.27 830.232 2496.85 834.344L2483.91 871.853C2482.58 875.692 2478.39 877.731 2474.55 876.406L2456.02 870.009C2452.18 868.684 2450.14 864.497 2451.46 860.658L2463.77 824.995ZM2419.15 807.07C2420.57 802.958 2425.23 800.97 2429.18 802.789L2447.08 811.031C2450.51 812.612 2452.19 816.538 2450.95 820.11L2438.65 855.773C2437.32 859.613 2433.14 861.651 2429.3 860.326L2410.76 853.929C2406.92 852.604 2404.88 848.418 2406.21 844.579L2419.15 807.07ZM2323.6 309.465C2433.79 178.807 2629.03 162.21 2759.69 272.394C2807 312.291 2839.35 363.34 2856.15 418.437C2898.57 408.992 2939.9 395.188 2979.24 375.312C2999.16 365.702 3018.48 354.639 3038.17 343.476L3040.99 347.012C3009.47 380.573 2972.43 408.635 2931.6 430.153C2803.86 498.095 2666.18 481.608 2528.24 484.624C2495.15 485.751 2461.6 487.707 2428.67 491.223C2413.53 492.818 2394.33 495.108 2379.35 497.493L2363.14 500.06C2357.85 501.208 2344.22 503.79 2339.05 505.055C2338.09 505.273 2337.14 505.495 2336.18 505.719C2329.83 507.372 2322 509.407 2318.32 510.497C2312.42 512.35 2303.55 515.051 2297.69 516.929C2294.7 517.977 2280.82 523.133 2277.37 524.332C2272.15 526.59 2258.28 532.113 2253.51 534.589C2252.95 534.849 2252.39 535.11 2251.84 535.373C2251.84 535.359 2251.83 535.345 2251.83 535.331C2188.47 566.172 2135.78 614.933 2110.11 684.589C2106.36 694.912 2103.16 705.762 2101.49 716.575L2096.99 716.171C2101.62 670.16 2122.54 627.267 2151.03 591.415C2178.03 558.017 2212.79 531.434 2250.71 511.456C2250.11 440.138 2274.02 368.262 2323.6 309.465ZM2678.3 368.904C2600.94 303.669 2485.35 313.496 2420.11 390.853C2400.81 413.735 2388.09 439.963 2381.73 467.243C2429.3 457.875 2477.99 452.322 2526.11 448.475C2590.08 443.605 2663.44 439.86 2727.32 435.35C2727.54 435.337 2727.76 435.323 2727.99 435.31C2717.09 410.43 2700.47 387.599 2678.3 368.904ZM2096.99 716.171C2096.99 716.178 2096.99 716.184 2096.99 716.191L2096.98 716.171L2096.99 716.171ZM2691.89 169.849C2693.21 166.01 2697.4 163.972 2701.24 165.296L2719.78 171.694C2723.62 173.019 2725.65 177.206 2724.33 181.045L2711.38 218.554C2709.97 222.665 2705.31 224.654 2701.36 222.835L2683.46 214.592C2680.02 213.011 2678.35 209.085 2679.58 205.513L2691.89 169.849ZM2646.63 153.776C2647.96 149.937 2652.15 147.899 2655.99 149.223L2674.52 155.621C2678.36 156.946 2680.4 161.132 2679.08 164.971L2666.77 200.634C2665.54 204.207 2661.8 206.263 2658.12 205.39L2638.94 200.839C2634.71 199.834 2632.27 195.396 2633.69 191.285L2646.63 153.776Z" fill="white"/>
</svg>
