<svg width="192" height="192" viewBox="0 0 192 192" fill="none" xmlns="http://www.w3.org/2000/svg">
<path opacity="0.4" d="M167.58 167.58H35.91C23.6048 167.58 15.96 159.935 15.96 147.63V31.92C15.96 27.515 19.535 23.94 23.94 23.94C28.3449 23.94 31.92 27.515 31.92 31.92V147.63C31.92 151.213 32.3269 151.62 35.91 151.62H167.58C171.985 151.62 175.56 155.195 175.56 159.6C175.56 164.005 171.985 167.58 167.58 167.58Z" fill="#4A4FD9"/>
<path d="M159.759 59.85H159.68C153.072 59.85 147.75 65.2046 147.75 71.82C147.75 72.8494 147.925 73.8306 148.164 74.7882L130.776 92.1772C129.827 91.9378 128.853 91.77 127.839 91.77H127.76C126.675 91.77 125.637 91.9614 124.639 92.2327L107.411 75.0044C107.69 73.983 107.889 72.9292 107.889 71.82C107.889 65.2046 102.535 59.85 95.9194 59.85H95.8398C89.2324 59.85 83.9097 65.2046 83.9097 71.82C83.9097 72.8494 84.0851 73.8306 84.3245 74.7882L66.9362 92.1772C65.9866 91.9378 65.0129 91.77 63.9994 91.77H63.9198C57.3124 91.77 51.9897 97.1246 51.9897 103.74C51.9897 110.355 57.384 115.71 63.9994 115.71C70.6149 115.71 75.9694 110.355 75.9694 103.74C75.9694 102.631 75.77 101.577 75.4907 100.556L92.7355 83.3107C93.757 83.59 94.8102 83.79 95.9194 83.79C96.9409 83.79 97.9145 83.6222 98.8562 83.3828L116.244 100.763C115.997 101.721 115.83 102.703 115.83 103.74C115.83 110.355 121.224 115.71 127.839 115.71C134.455 115.71 139.809 110.355 139.809 103.74C139.809 102.631 139.61 101.577 139.331 100.556L156.576 83.3107C157.597 83.59 158.65 83.79 159.759 83.79C166.375 83.79 171.729 78.4354 171.729 71.82C171.729 65.2046 166.375 59.85 159.759 59.85Z" fill="#4A4FD9"/>
</svg>
