<svg width="192" height="192" viewBox="0 0 192 192" fill="none" xmlns="http://www.w3.org/2000/svg">
<path d="M156.321 145.738C163.344 138.157 167.572 127.943 167.572 115.726C167.572 97.22 158.012 83.4944 143.576 76.073C143.584 76.4401 143.632 76.7831 143.632 77.1582C143.632 110.419 116.835 130.377 83.7823 130.377C77.3903 130.377 71.2614 129.627 65.5078 128.183C71.0938 149.489 91.4433 161.858 115.695 161.858C123.036 161.858 130.057 160.741 136.361 158.507C144.102 166.726 156.711 167.844 164.931 167.524C167.404 167.524 168.521 164.332 166.606 162.736C160.31 157.636 157.199 151.332 156.321 145.738Z" fill="#4A4FD9"/>
<path opacity="0.4" d="M143.632 77.1582C143.632 76.7831 143.584 76.4401 143.576 76.073C142.985 43.4747 116.468 23.94 83.7899 23.94C50.7448 23.94 23.9399 43.8975 23.9399 77.1582C23.9399 91.2588 28.7918 103.037 36.9074 111.815C35.9099 118.199 32.3197 125.518 25.0738 131.375C22.8793 133.234 24.1397 136.897 27.0045 136.96C36.4449 137.296 51.0084 136.027 59.922 126.515C61.7415 127.145 63.616 127.696 65.5232 128.175C71.2768 129.619 77.4058 130.37 83.7977 130.37C116.835 130.386 143.632 110.427 143.632 77.1582Z" fill="#4A4FD9"/>
<path d="M83.2467 84.4923C78.8417 84.4923 75.2277 80.9173 75.2277 76.5123C75.2277 72.1074 78.7638 68.5323 83.1687 68.5323H83.2467C87.6596 68.5323 91.2267 72.1074 91.2267 76.5123C91.2267 80.9173 87.6516 84.4923 83.2467 84.4923ZM64.7988 76.5123C64.7988 72.1074 61.2317 68.5323 56.8188 68.5323H56.7389C52.3339 68.5323 48.7979 72.1074 48.7979 76.5123C48.7979 80.9173 52.4138 84.4923 56.8188 84.4923C61.2317 84.4923 64.7988 80.9253 64.7988 76.5123ZM117.514 76.5123C117.514 72.1074 113.947 68.5323 109.534 68.5323H109.454C105.049 68.5323 101.513 72.1074 101.513 76.5123C101.513 80.9173 105.129 84.4923 109.534 84.4923C113.939 84.4923 117.514 80.9253 117.514 76.5123Z" fill="#4A4FD9"/>
</svg>
