<svg width="192" height="192" viewBox="0 0 192 192" fill="none" xmlns="http://www.w3.org/2000/svg">
<path opacity="0.4" d="M95.76 175.56C51.7582 175.56 15.96 139.762 15.96 95.76C15.96 51.7583 51.7582 15.96 95.76 15.96C139.762 15.96 175.56 51.7583 175.56 95.76C175.56 139.762 139.762 175.56 95.76 175.56Z" fill="#4A4FD9"/>
<path d="M175.296 102.232C172.192 101.258 166.941 102.806 163.678 106.485C159.799 110.866 154.485 108.696 145.85 92.7836C137.583 77.5497 145.156 70.8464 148.172 61.5338C150.742 53.9049 143.807 34.745 139.554 29.0712L139.562 29.0393C139.642 29.1191 139.642 29.1189 139.642 29.1189C161.268 43.4031 175.552 67.9018 175.552 95.752C175.552 97.9066 175.472 100.141 175.312 102.216L175.296 102.232Z" fill="#4A4FD9"/>
<path d="M114.273 173.405C108.368 174.842 102.144 175.56 95.7598 175.56C92.9668 175.56 90.2534 175.4 87.5402 175.161C89.7746 168.298 88.7375 159.281 86.3435 155.77C80.4383 146.992 65.1168 146.832 64.5582 135.74C63.9996 124.648 65.5158 122.732 63.9996 116.269C62.4834 109.885 23.461 106.98 25.456 58.1424V58.0944C38.8624 33.0372 65.356 15.96 95.7598 15.96C101.585 15.96 107.171 16.5984 112.597 17.7156L112.606 17.7314C113.053 24.2032 107.682 30.0607 101.865 31.968C79.2972 39.3654 97.2999 68.7717 82.2736 71.868C77.2861 72.8974 68.7715 64.5183 63.9835 65.6674C60.967 66.3777 54.9023 71.6284 60.5521 77.4857C67.3351 84.5161 64.143 87.2294 66.6248 92.9031C69.1944 98.5769 77.0069 99.2393 86.3196 98.178C95.5445 97.0289 99.8294 96.6378 106.389 103.469C112.948 110.3 111.624 119.963 120.841 121.025C130.154 122.174 140.52 126.212 139.195 134.104C137.336 145.14 116.923 150.958 114.25 173.413" fill="#4A4FD9"/>
</svg>
