<svg width="192" height="192" viewBox="0 0 192 192" fill="none" xmlns="http://www.w3.org/2000/svg">
<path opacity="0.4" d="M163.59 95.76H151.62C142.802 95.76 135.66 102.902 135.66 111.72C135.66 120.538 142.802 127.68 151.62 127.68H163.59C165.792 127.68 167.58 129.468 167.58 131.67V151.62C167.58 160.438 160.438 167.58 151.62 167.58H123.69C121.487 167.58 119.7 165.792 119.7 163.59V151.62C119.7 142.802 112.558 135.66 103.74 135.66C94.9221 135.66 87.78 142.802 87.78 151.62V163.59C87.78 165.792 85.9924 167.58 83.79 167.58H63.84C55.0221 167.58 47.88 160.438 47.88 151.62V131.67C47.88 129.468 46.0924 127.68 43.89 127.68H31.92C23.1021 127.68 15.96 120.538 15.96 111.72C15.96 102.902 23.1021 95.76 31.92 95.76H43.89C46.0924 95.76 47.88 93.9725 47.88 91.77V71.82C47.88 63.0021 55.0221 55.86 63.84 55.86H83.79C85.9924 55.86 87.78 54.0725 87.78 51.87V39.9C87.78 31.0821 94.9221 23.94 103.74 23.94C112.558 23.94 119.7 31.0821 119.7 39.9V51.87C119.7 54.0725 121.487 55.86 123.69 55.86H151.62C160.438 55.86 167.58 63.0021 167.58 71.82V91.77C167.58 93.9725 165.792 95.76 163.59 95.76Z" fill="#4A4FD9"/>
</svg>
