<svg width="192" height="192" viewBox="0 0 192 192" fill="none" xmlns="http://www.w3.org/2000/svg">
<path opacity="0.4" d="M143.64 55.86H39.9C31.122 55.86 23.94 48.678 23.94 39.9V143.64C23.94 159.6 31.92 167.58 47.88 167.58H143.64C159.6 167.58 167.58 159.6 167.58 143.64V79.8C167.58 63.84 159.6 55.86 143.64 55.86Z" fill="#4A4FD9"/>
<path d="M131.67 91.77C120.658 91.77 111.72 100.708 111.72 111.72C111.72 117.226 113.954 122.254 117.545 125.845C121.136 129.436 126.164 131.67 131.67 131.67H167.58V91.77H131.67ZM135.66 119.7C131.271 119.7 127.68 116.109 127.68 111.72C127.68 107.331 131.271 103.74 135.66 103.74C140.049 103.74 143.64 107.331 143.64 111.72C143.64 116.109 140.049 119.7 135.66 119.7Z" fill="#4A4FD9"/>
<path d="M23.94 39.9C23.94 44.289 25.6958 48.2788 28.6484 51.1516C31.5212 54.1042 35.511 55.86 39.9 55.86H143.64V47.88C143.64 31.92 135.66 23.94 119.7 23.94H39.9C31.122 23.94 23.94 31.122 23.94 39.9Z" fill="#4A4FD9"/>
</svg>
