<svg width="2752" height="907" viewBox="0 0 2752 907" fill="none" xmlns="http://www.w3.org/2000/svg">
<path d="M107.036 488.037C45.0677 488.037 9.61003 451.917 9.61003 392.6V294.511H70.9154V390.611C70.9154 417.122 85.8275 431.371 107.699 431.371C128.244 431.371 142.162 415.465 142.162 392.6V382.658C142.162 358.799 125.925 347.201 111.012 347.201C101.071 347.201 94.7748 350.183 91.461 352.503L91.1296 297.162C98.0886 293.517 112.007 290.535 121.948 290.535C174.306 290.535 203.799 328.312 203.799 381.996V392.931C203.799 445.952 167.016 488.037 107.036 488.037ZM388.971 336.265C388.971 352.834 386.982 358.468 376.378 380.339L341.252 456.225C333.962 471.137 333.299 476.108 332.636 484.061H268.348C268.348 465.835 271.662 458.876 283.26 436.011L314.079 372.054C318.387 363.107 321.038 358.136 321.038 352.503V350.846H218.973V249.112H280.278V294.511H388.971V336.265ZM410.945 484.061V427.726H449.054L410.614 294.511H471.919L509.365 425.406C529.911 420.767 538.527 407.181 538.527 381.001V294.511H599.832V380.67C599.832 461.196 554.765 484.061 492.134 484.061H410.945ZM622.905 484.061V294.511H684.21V484.061H622.905ZM707.368 484.061V294.511H768.673V484.061H707.368ZM884.001 484.061V294.511H917.139V484.061H884.001ZM1053.1 488.369C995.107 488.369 961.306 451.254 961.306 390.943V294.511H993.782V390.28C993.782 434.685 1018.97 457.55 1053.1 457.55C1091.21 457.55 1112.08 427.395 1112.08 390.28V381.333C1112.08 337.922 1084.58 321.353 1060.39 321.353C1048.13 321.353 1039.18 325.33 1034.54 328.312V297.162C1041.5 293.186 1055.75 290.535 1065.03 290.535C1115.4 290.535 1144.89 328.975 1144.89 381.333V390.611C1144.89 445.289 1110.1 488.369 1053.1 488.369ZM1190.26 484.061V453.242H1263.49C1299.94 453.242 1320.49 424.412 1320.49 390.943V382.327C1320.49 346.869 1299.61 320.69 1264.49 320.69H1263.49C1233.67 320.69 1212.46 346.207 1212.46 374.374V375.037C1212.46 394.919 1218.09 407.512 1221.74 413.145H1188.27C1185.62 408.506 1179.32 394.919 1179.32 372.386V371.723C1179.32 321.684 1217.43 289.872 1263.16 289.872H1264.49C1317.84 289.872 1353.63 327.318 1353.63 381.996V390.943C1353.63 448.272 1316.18 484.061 1264.49 484.061H1190.26ZM1393.05 395.582V294.511H1426.18V395.582H1393.05ZM1587.99 393.925C1587.99 352.171 1569.43 325.661 1519.39 325.661H1466.04L1466.37 294.511H1524.7C1587.99 294.511 1620.47 326.986 1620.47 392.6V484.061H1587.99V393.925ZM1737.79 454.237C1740.78 455.231 1746.74 456.888 1754.03 456.888C1782.2 456.888 1802.41 437.999 1802.41 397.902V325.33H1663.23V294.511H1835.22V398.896C1835.22 449.597 1808.38 487.706 1758.34 487.706C1748.4 487.706 1742.43 485.718 1737.79 484.392V454.237ZM1666.21 529.46V372.717H1698.69V529.46H1666.21Z" fill="black"/>
<path d="M61.8398 632.076V584.688H83.4624C98.4574 584.688 104.919 593.553 104.919 605.814V632.076H61.8398ZM70.1244 624.371H96.7176V606.062C96.7176 597.281 92.4925 592.393 83.2139 592.393H70.1244V624.371ZM164.843 609.956V584.688H173.127V609.956H164.843ZM258.15 632.076V592.393H232.136V584.688H274.553V592.393H266.434V632.076H258.15ZM362.548 609.542C362.548 599.103 357.909 592.476 345.399 592.476H332.061L332.144 584.688H346.725C362.548 584.688 370.667 592.807 370.667 609.21V632.076H362.548V609.542ZM430.569 632.076V584.688H449.789C465.612 584.688 474.394 592.227 474.394 608.879V632.076H466.192V608.962C466.192 598.772 461.635 592.393 449.374 592.393H438.853V632.076H430.569ZM570.443 591.482C570.443 595.541 569.946 597.115 567.047 603.577L558.597 622.134C555.78 628.182 555.697 630.005 555.614 632.076H547.081C547.081 628.513 547.413 627.022 551.223 618.903L559.094 601.672C560.999 597.612 561.828 596.369 561.828 593.138V592.393H531.838V573.338H540.039V584.688H570.443V591.482ZM702.767 632.076V584.688H711.051V632.076H702.767ZM793.919 633.153C779.422 633.153 770.971 623.874 770.971 608.796V584.688H779.09V608.631C779.09 619.732 785.386 625.448 793.919 625.448C803.447 625.448 808.666 617.909 808.666 608.631V606.394C808.666 595.541 801.79 591.399 795.742 591.399C792.677 591.399 790.44 592.393 789.28 593.138V585.351C791.02 584.357 794.582 583.694 796.902 583.694C809.494 583.694 816.868 593.304 816.868 606.394V608.713C816.868 622.383 808.169 633.153 793.919 633.153ZM877.088 632.076V624.371H895.396C904.509 624.371 909.646 617.164 909.646 608.796V606.642C909.646 597.778 904.426 591.233 895.645 591.233H895.396C887.94 591.233 882.638 597.612 882.638 604.654V604.82C882.638 609.79 884.047 612.938 884.958 614.347H876.59C875.928 613.187 874.354 609.79 874.354 604.157V603.991C874.354 591.482 883.881 583.528 895.313 583.528H895.645C908.983 583.528 917.93 592.89 917.93 606.559V608.796C917.93 623.128 908.569 632.076 895.645 632.076H877.088ZM976.664 609.956V584.688H984.948V609.956H976.664ZM1074.28 609.542C1074.28 599.103 1069.64 592.476 1057.13 592.476H1043.79L1043.87 584.688H1058.45C1074.28 584.688 1082.4 592.807 1082.4 609.21V632.076H1074.28V609.542ZM1160.61 624.62C1161.35 624.868 1162.84 625.282 1164.67 625.282C1171.71 625.282 1176.76 620.56 1176.76 610.536V592.393H1141.97V584.688H1184.96V610.784C1184.96 623.46 1178.25 632.987 1165.74 632.987C1163.26 632.987 1161.77 632.49 1160.61 632.159V624.62ZM1142.71 643.425V604.24H1150.83V643.425H1142.71ZM1279.85 609.21C1279.85 598.938 1275.46 592.393 1262.7 592.393H1244.98V584.688H1262.95C1279.44 584.688 1288.06 592.061 1288.06 609.21V632.076H1279.85V609.21ZM1245.47 632.076V606.394H1253.76V632.076H1245.47ZM1420.81 632.076V584.688H1442.43C1457.42 584.688 1463.89 593.553 1463.89 605.814V632.076H1420.81ZM1429.09 624.371H1455.68V606.062C1455.68 597.281 1451.46 592.393 1442.18 592.393H1429.09V624.371ZM1560.92 591.482C1560.92 595.541 1560.43 597.115 1557.53 603.577L1549.08 622.134C1546.26 628.182 1546.18 630.005 1546.1 632.076H1537.56C1537.56 628.513 1537.89 627.022 1541.7 618.903L1549.58 601.672C1551.48 597.612 1552.31 596.369 1552.31 593.138V592.393H1522.32V573.338H1530.52V584.688H1560.92V591.482ZM1620.66 632.076V584.688H1628.95V632.076H1620.66ZM1689.12 632.076V624.371H1702.54L1688.95 584.688H1697.32L1710.66 623.957C1720.27 622.548 1724.41 617.164 1724.41 605.979V584.688H1732.61V605.897C1732.61 626.359 1721.18 632.076 1705.36 632.076H1689.12Z" fill="black"/>
<circle cx="897.487" cy="270.941" r="34.5187" fill="#E2B123"/>
<path d="M1957.18 494.42C1969.56 489.614 1986.64 484.659 1999.56 481.264C2012.16 478.047 2026.8 474.941 2039.64 472.394C2137.46 453.95 2238.31 451.436 2337.5 455.532L2391.6 458.83L2337.45 457.509C2328.02 457.536 2305.84 457.631 2296.84 457.657C2220.99 458.841 2144.08 464.63 2069.44 479.193C2075.61 515.914 2094.33 550.723 2125.03 576.608C2193.75 634.563 2296.44 625.832 2354.4 557.109C2379.73 527.067 2392.32 490.533 2392.73 454.083C2430.4 450.274 2467.57 443.073 2503.97 429.597C2509.72 499.483 2488.92 571.572 2440.14 629.414L2438.99 630.77C2340.89 745.602 2168.34 759.851 2052.72 662.346L2051.37 661.195C2003.27 620.112 1972.82 565.966 1960.83 508.413C1958.84 503.026 1957.19 494.481 1957.18 494.42ZM2144.31 732.904C2145.41 729.73 2148.73 727.903 2152 728.679L2169.03 732.723C2172.79 733.616 2174.96 737.558 2173.7 741.211L2162.2 774.533C2161.02 777.944 2157.3 779.755 2153.89 778.578L2137.42 772.895C2134.01 771.718 2132.2 767.998 2133.38 764.587L2144.31 732.904ZM2104.67 716.983C2105.93 713.33 2110.07 711.563 2113.58 713.179L2129.48 720.502C2132.53 721.907 2134.02 725.394 2132.93 728.568L2121.99 760.251C2120.82 763.662 2117.1 765.472 2113.69 764.295L2097.22 758.612C2093.81 757.435 2092 753.715 2093.17 750.305L2104.67 716.983ZM2019.79 274.929C2117.68 158.854 2291.13 144.109 2407.2 241.997L2408.56 243.148C2449.85 278.416 2478.13 323.309 2492.89 371.72C2530.58 363.33 2567.3 351.065 2602.25 333.407C2619.95 324.87 2637.11 315.041 2654.6 305.124L2657.11 308.265C2629.1 338.081 2596.2 363.01 2559.93 382.127C2446.44 442.486 2324.13 427.84 2201.59 430.52C2172.19 431.521 2142.38 433.258 2113.13 436.382C2099.68 437.799 2082.62 439.833 2069.32 441.952L2054.91 444.232C2050.21 445.252 2038.1 447.546 2033.51 448.671C2032.97 448.795 2032.42 448.92 2031.88 449.046C2026.09 450.553 2018.54 452.506 2015.1 453.527C2009.85 455.173 2001.97 457.574 1996.77 459.242C1994.11 460.173 1981.78 464.752 1978.72 465.818C1974.08 467.824 1961.76 472.731 1957.52 474.931C1957.02 475.162 1956.53 475.395 1956.03 475.628C1956.03 475.608 1956.03 475.587 1956.03 475.566C1899.74 502.965 1852.93 546.284 1830.12 608.166C1826.79 617.337 1823.95 626.976 1822.46 636.583L1818.47 636.224C1822.58 595.348 1841.17 557.242 1866.48 525.391C1890.47 495.72 1921.34 472.104 1955.03 454.355C1954.51 391.554 1975.38 328.267 2018.65 276.292L2019.79 274.929ZM2334.9 327.735C2266.18 269.78 2163.48 278.509 2105.53 347.233C2088.39 367.556 2077.08 390.85 2071.43 415.079C2113.69 406.757 2156.95 401.822 2199.69 398.404C2256.52 394.078 2321.69 390.751 2378.44 386.744C2378.64 386.733 2378.84 386.721 2379.03 386.71C2369.35 364.614 2354.59 344.338 2334.9 327.735ZM1818.47 636.224C1818.47 636.23 1818.47 636.236 1818.47 636.241L1818.46 636.224L1818.47 636.224ZM2346.97 150.884C2348.15 147.473 2351.86 145.662 2355.28 146.839L2371.74 152.523C2375.16 153.7 2376.97 157.419 2375.79 160.83L2364.29 194.152C2363.03 197.805 2358.89 199.571 2355.38 197.955L2339.48 190.632C2336.43 189.228 2334.94 185.741 2336.04 182.567L2346.97 150.884ZM2306.77 136.6C2307.94 133.189 2311.66 131.378 2315.07 132.555L2331.54 138.238C2334.95 139.415 2336.77 143.135 2335.59 146.546L2324.65 178.228C2323.56 181.402 2320.24 183.23 2316.97 182.454L2299.93 178.41C2296.18 177.517 2294.01 173.575 2295.27 169.922L2306.77 136.6Z" fill="url(#paint0_radial_2083_568)"/>
<defs>
<radialGradient id="paint0_radial_2083_568" cx="0" cy="0" r="1" gradientTransform="matrix(681.887 158.537 -509.715 637.58 1931.44 311.26)" gradientUnits="userSpaceOnUse">
<stop stop-color="#6D4FBE"/>
<stop offset="0.650102" stop-color="#3A40B7"/>
<stop offset="1" stop-color="#262A78"/>
</radialGradient>
</defs>
</svg>
