<svg width="79" height="35" viewBox="0 0 79 35" fill="none" xmlns="http://www.w3.org/2000/svg">
<g id="&#215;&#147;&#215;&#163; &#215;&#145;&#215;&#153;&#215;&#170;">
<g id="Frame 58">
<g id="Layer_1">
<path id="Vector" d="M78.9992 25.7693H75.2862V24.9162C74.0797 25.6777 72.5944 25.9519 71.2021 25.9519C65.8186 25.9519 63.1578 22.0828 63.1885 18.1224C63.2195 12.9738 67.3964 10.293 71.4495 10.293C75.286 10.293 78.9989 12.4257 78.9989 17.4523V25.7693H78.9992ZM71.6045 22.601C74.1417 22.601 75.4102 20.377 75.4412 18.153C75.503 15.1675 73.461 13.7355 71.3571 13.705C69.1604 13.6745 66.9017 15.1977 66.9017 18.0919C66.9017 20.3159 68.4488 22.6007 71.6045 22.6007V22.601Z" fill="#1C1C1C"/>
<path id="Vector_2" d="M29.3273 15.8712H25.7353C25.7353 15.0996 25.4196 14.4781 24.7885 14.0063C24.1568 13.5353 23.3189 13.2989 22.2742 13.2989C21.4252 13.2989 20.7231 13.4756 20.1681 13.8293C19.613 14.183 19.3354 14.628 19.3354 15.1638C19.3354 15.6996 19.6073 16.166 20.1517 16.5623C20.6956 16.9591 21.3763 17.3501 22.1926 17.7359C23.0089 18.1217 23.8905 18.5293 24.8374 18.9579C25.7846 19.3869 26.6659 19.9013 27.4822 20.5013C28.2986 21.1016 28.9787 21.8195 29.5231 22.6554C30.067 23.4913 30.3394 24.4992 30.3394 25.6778H26.7477C26.7477 24.885 26.4753 24.2261 25.9314 23.7007C25.387 23.1757 24.7069 22.6988 23.8905 22.2698C23.0742 21.8412 22.1926 21.4288 21.2457 21.032C20.2986 20.6357 19.417 20.1797 18.6009 19.6656C17.7846 19.151 17.1039 18.5352 16.5601 17.8168C16.0156 17.0986 15.7437 16.2145 15.7437 15.1644C15.7437 14.4144 15.912 13.7174 16.2498 13.0745C16.587 12.4316 17.055 11.8744 17.6538 11.4026C18.2523 10.9317 18.9599 10.5667 19.7762 10.3097C20.5925 10.0524 21.4905 9.92383 22.4702 9.92383C23.45 9.92383 24.4238 10.0687 25.2622 10.3579C26.1 10.6473 26.8182 11.0546 27.4172 11.5796C28.0158 12.1052 28.4838 12.7321 28.8215 13.4606C29.1587 14.1895 29.3276 14.9933 29.3276 15.872L29.3273 15.8712Z" fill="#1C1C1C"/>
<path id="Vector_3" d="M34.1705 10.1895H30.2476L37.1253 25.6762H41.0453L34.1702 10.1895H34.1705Z" fill="#1C1C1C"/>
<path id="Vector_4" d="M58.9372 10.5137H62.8601L55.9824 26.0005H52.0625L58.9375 10.5137H58.9372Z" fill="#1C1C1C"/>
<path id="Vector_5" d="M51.1052 10.2461L46.5987 20.8557L42.0952 10.2461H38.1753L44.9989 25.6769H48.2015L55.0251 10.2461H51.1052Z" fill="#1C1C1C"/>
<path id="Vector_6" d="M17.6468 21.5371C18.8433 21.5371 19.8149 22.4935 19.8149 23.6719V25.8068H17.6468C16.4503 25.8068 15.4787 24.8503 15.4787 23.6719C15.4787 22.4938 16.45 21.5371 17.6468 21.5371Z" fill="#1C1C1C"/>
<path id="Vector_7" d="M31.1678 4.08984C32.3643 4.08984 33.3359 5.04627 33.3359 6.22467V8.3595H31.1678C29.9712 8.3595 28.9996 7.40307 28.9996 6.22467C28.9996 5.04654 29.971 4.08984 31.1678 4.08984Z" fill="#1C1C1C"/>
<path id="Vector_8" d="M61.8678 8.35742H59.6997V6.2226C59.6997 5.04447 60.6711 4.08777 61.8678 4.08777C63.0643 4.08777 64.0359 5.0442 64.0359 6.2226C64.0359 7.40073 63.0646 8.35742 61.8678 8.35742Z" fill="#1C1C1C"/>
<path id="Vector_9" d="M10.0202 25.6784C5.50473 25.6784 2.91512 23.142 2.91512 18.7192V10.0021H0V6.97614H5.9798L5.03402 5.88958C3.87123 4.55374 3.00567 2.87437 2.39818 0.771408L5.80087 0C7.14503 4.69217 10.0593 6.97587 14.692 6.97587C15.2225 6.97587 15.7683 6.94267 16.4389 6.8677L16.8492 9.74582C16.0677 9.81891 15.3694 9.85453 14.7295 9.85453C12.017 9.85453 9.67809 9.30268 7.77782 8.21425L6.7733 7.63884V18.2404C6.7733 18.9781 6.92286 20.032 7.63614 20.8631C8.37498 21.7242 9.48773 21.853 10.3731 22.0093C11.0802 22.1344 11.996 22.1703 13.4147 22.2669C12.7564 23.8221 13.211 25.0377 13.548 25.676L10.0204 25.6782H10.0207L10.0202 25.6784Z" fill="#1C1C1C"/>
</g>
</g>
</g>
</svg>
